<svg width="100" height="100" viewBox="0 0 100 100" fill="none" xmlns="http://www.w3.org/2000/svg">
<path d="M58.45 57.43L51.64 64.85V81.87L44.45 81.88V25.71H51.85V53.48L76.81 25.71H86.76L64.66 50.51L88.36 81.88H78.63L58.45 57.43Z" fill="#FCF8F0"/>
<path d="M44.36 19H51.9V62.89C51.9 62.89 50.56 66.33 47.28 69.4C44.02 72.47 45.73 71.3 40.45 72.64C30.47 75.18 21.97 72.2 18.2 69.5C14.73 67.01 16 61.38 16 56.17H23.5C23.51 58.77 24.52 61.36 26.82 63.02C29.09 64.66 34.71 65.59 38.1 65.59C41.2 65.59 39.53 64.54 41.43 62.59C43.36 60.64 44.33 58.9 44.36 55.39V19Z" fill="#FCF8F0"/>
<path d="M54.83 55.91L47.85 63.73V81.88H40.45V25.71H47.85V53.48L72.81 25.71H81.76L59.66 50.51L83.5 81.88H74.63L54.83 55.91Z" fill="#FF7F61"/>
<path d="M40.36 19H47.9L47.86 62.9C47.86 62.9 46.56 64.33 43.28 67.4C40.02 70.47 35.38 72.66 29.93 72.66C24.28 72.66 19.88 71.21 16.73 68.32C13.58 65.43 12 61.38 12 56.17H19.5C19.5 59.43 20.39 60.96 22.16 62.79C23.96 64.61 26.55 65.52 29.93 65.52C33.03 65.52 35.53 64.54 37.43 62.59C39.36 60.64 40.33 58.9 40.36 55.39V19Z" fill="#FF7F61"/>
</svg>
