<svg width="79" height="99" viewBox="0 0 79 99" fill="none" xmlns="http://www.w3.org/2000/svg">
<path d="M49.7915 53.8853L42.9253 61.0215V80H35.519V23.8359H42.9253V51.6094L67.8828 23.8359H76.832L54.729 48.6392L78.5679 80H69.6958L49.7915 53.8853Z" fill="#0A2239"/>
<path d="M35.4297 17.125H42.9688V57.3984C42.9688 62.8411 41.3281 67.099 38.0469 70.1719C34.7917 73.2448 30.4427 74.7812 25 74.7812C19.349 74.7812 14.9479 73.3359 11.7969 70.4453C8.64583 67.5547 7.07031 63.5052 7.07031 58.2969H14.5703C14.5703 61.5521 15.4557 64.0911 17.2266 65.9141C19.0234 67.737 21.6146 68.6484 25 68.6484C28.099 68.6484 30.599 67.6719 32.5 65.7188C34.4271 63.7656 35.4036 61.0312 35.4297 57.5156V17.125Z" fill="#0A2239"/>
<path d="M44.7915 53.8853L37.9253 61.0215V80H30.519V23.8359H37.9253V51.6094L62.8828 23.8359H71.832L49.729 48.6392L73.5679 80H64.6958L44.7915 53.8853Z" fill="#8EA2B6"/>
<path d="M30.4297 17.125H37.9688V57.3984C37.9688 62.8411 36.3281 67.099 33.0469 70.1719C29.7917 73.2448 25.4427 74.7812 20 74.7812C14.349 74.7812 9.94792 73.3359 6.79688 70.4453C3.64583 67.5547 2.07031 63.5052 2.07031 58.2969H9.57031C9.57031 61.5521 10.4557 64.0911 12.2266 65.9141C14.0234 67.737 16.6146 68.6484 20 68.6484C23.099 68.6484 25.599 67.6719 27.5 65.7188C29.4271 63.7656 30.4036 61.0312 30.4297 57.5156V17.125Z" fill="#8EA2B6"/>
</svg>
